<?xml version="1.0" standalone="no"?>
 <!DOCTYPE svg PUBLIC "-//W3C//DTD SVG 1.1//EN" 
 "http://www.w3.org/Graphics/SVG/1.1/DTD/svg11.dtd"> 
<svg xmlns="http://www.w3.org/2000/svg" version="1.1" 
    width="29.7002cm" height="21.0007cm" viewBox="0 0 116930 82680 ">
<title>SVG Picture created as strip-board-size-Eco1.User.svg date 2017/02/14 11:34:38 </title>
  <desc>Picture generated by PCBNEW </desc>
<g style="fill:#000000; fill-opacity:1;stroke:#000000; stroke-opacity:1;
stroke-linecap:round; stroke-linejoin:round; "
 transform="translate(0 0) scale(1 1)">
</g>
<g style="fill:#000000; fill-opacity:0.0; 
stroke:#000000; stroke-width:-0.000393701; stroke-opacity:1; 
stroke-linecap:round; stroke-linejoin:round;">
</g>
<g style="fill:#000000; fill-opacity:0.0; 
stroke:#000000; stroke-width:118.11; stroke-opacity:1; 
stroke-linecap:round; stroke-linejoin:round;">
<path d="M38138 41972
L38166 41915
L38195 41887
L38251 41859
L38279 41859
L38335 41887
L38363 41915
L38391 41972
L38391 42084
L38363 42140
L38335 42168
L38279 42197
L38251 42197
L38195 42168
L38166 42140
L38138 42084
L38138 41972
L38110 41915
L38082 41887
L38026 41859
L37913 41859
L37857 41887
L37829 41915
L37801 41972
L37801 42084
L37829 42140
L37857 42168
L37913 42197
L38026 42197
L38082 42168
L38110 42140
L38138 42084
" />
<path d="M37829 42478
L37801 42478
L37745 42450
L37716 42422
" />
<path d="M38391 42843
L38391 42900
L38363 42956
L38335 42984
L38279 43012
L38166 43040
L38026 43040
L37913 43012
L37857 42984
L37829 42956
L37801 42900
L37801 42843
L37829 42787
L37857 42759
L37913 42731
L38026 42703
L38166 42703
L38279 42731
L38335 42759
L38363 42787
L38391 42843
" />
<path d="M38391 43406
L38391 43462
L38363 43518
L38335 43546
L38279 43575
L38166 43603
L38026 43603
L37913 43575
L37857 43546
L37829 43518
L37801 43462
L37801 43406
L37829 43350
L37857 43321
L37913 43293
L38026 43265
L38166 43265
L38279 43293
L38335 43321
L38363 43350
L38391 43406
" />
<path d="M37801 44165
L37801 43828
" />
<path d="M37801 43996
L38391 43996
L38307 43940
L38251 43884
L38223 43828
" />
<path d="M37801 44868
L38195 44868
" />
<path d="M38138 44868
L38166 44896
L38195 44953
L38195 45037
L38166 45093
L38110 45121
L37801 45121
" />
<path d="M38110 45121
L38166 45149
L38195 45206
L38195 45290
L38166 45346
L38110 45374
L37801 45374
" />
<path d="M37801 45656
L38195 45656
" />
<path d="M38138 45656
L38166 45684
L38195 45740
L38195 45824
L38166 45881
L38110 45909
L37801 45909
" />
<path d="M38110 45909
L38166 45937
L38195 45993
L38195 46077
L38166 46134
L38110 46162
L37801 46162
" />
<path d="M38600 42450
L38600 45600
" />
<path d="M45100 42450
L37537 42450
" />
<path d="M45100 45600
L37537 45600
" />
<path d="M38600 45600
L38369 45156
" />
<path d="M38600 45600
L38830 45156
" />
<path d="M38600 42450
L38369 42893
" />
<path d="M38600 42450
L38830 42893
" />
<path d="M37745 36184
L37745 36296
L37773 36352
L37801 36380
L37885 36437
L37998 36465
L38223 36465
L38279 36437
L38307 36409
L38335 36352
L38335 36240
L38307 36184
L38279 36156
L38223 36127
L38082 36127
L38026 36156
L37998 36184
L37970 36240
L37970 36352
L37998 36409
L38026 36437
L38082 36465
" />
<path d="M38307 35846
L38335 35846
L38391 35874
L38420 35902
" />
<path d="M37998 35509
L37970 35565
L37941 35593
L37885 35621
L37857 35621
L37801 35593
L37773 35565
L37745 35509
L37745 35396
L37773 35340
L37801 35312
L37857 35284
L37885 35284
L37941 35312
L37970 35340
L37998 35396
L37998 35509
L38026 35565
L38054 35593
L38110 35621
L38223 35621
L38279 35593
L38307 35565
L38335 35509
L38335 35396
L38307 35340
L38279 35312
L38223 35284
L38110 35284
L38054 35312
L38026 35340
L37998 35396
" />
<path d="M37745 34749
L37745 35031
L38026 35059
L37998 35031
L37970 34974
L37970 34834
L37998 34778
L38026 34749
L38082 34721
L38223 34721
L38279 34749
L38307 34778
L38335 34834
L38335 34974
L38307 35031
L38279 35059
" />
<path d="M37998 34384
L37970 34440
L37941 34468
L37885 34496
L37857 34496
L37801 34468
L37773 34440
L37745 34384
L37745 34271
L37773 34215
L37801 34187
L37857 34159
L37885 34159
L37941 34187
L37970 34215
L37998 34271
L37998 34384
L38026 34440
L38054 34468
L38110 34496
L38223 34496
L38279 34468
L38307 34440
L38335 34384
L38335 34271
L38307 34215
L38279 34187
L38223 34159
L38110 34159
L38054 34187
L38026 34215
L37998 34271
" />
<path d="M38335 33456
L37941 33456
" />
<path d="M37998 33456
L37970 33428
L37941 33371
L37941 33287
L37970 33231
L38026 33203
L38335 33203
" />
<path d="M38026 33203
L37970 33175
L37941 33118
L37941 33034
L37970 32978
L38026 32950
L38335 32950
" />
<path d="M38335 32668
L37941 32668
" />
<path d="M37998 32668
L37970 32640
L37941 32584
L37941 32500
L37970 32443
L38026 32415
L38335 32415
" />
<path d="M38026 32415
L37970 32387
L37941 32331
L37941 32247
L37970 32190
L38026 32162
L38335 32162
" />
<path d="M38600 35650
L38600 32950
" />
<path d="M45100 35650
L37537 35650
" />
<path d="M45100 32950
L37537 32950
" />
<path d="M38600 32950
L38830 33393
" />
<path d="M38600 32950
L38369 33393
" />
<path d="M38600 35650
L38830 35206
" />
<path d="M38600 35650
L38369 35206
" />
<path d="M77872 41798
L77874 41432
L78098 41630
L78098 41546
L78127 41489
L78155 41461
L78211 41434
L78352 41434
L78408 41462
L78436 41491
L78464 41547
L78463 41716
L78435 41772
L78407 41800
" />
<path d="M77931 41207
L77903 41179
L77875 41123
L77876 40982
L77904 40926
L77932 40898
L77988 40870
L78045 40870
L78129 40899
L78465 41238
L78467 40872
" />
<path d="M78440 40591
L78468 40591
L78524 40619
L78552 40648
" />
<path d="M77879 40223
L77879 40167
L77907 40111
L77935 40083
L77992 40055
L78104 40027
L78245 40028
L78357 40056
L78413 40085
L78441 40113
L78469 40169
L78469 40225
L78441 40281
L78413 40310
L78356 40337
L78244 40365
L78103 40365
L77991 40336
L77934 40308
L77906 40279
L77879 40223
" />
<path d="M77881 39661
L77881 39604
L77909 39548
L77938 39520
L77994 39492
L78107 39465
L78247 39465
L78360 39494
L78416 39522
L78444 39550
L78472 39607
L78471 39663
L78443 39719
L78415 39747
L78358 39775
L78246 39803
L78105 39802
L77993 39774
L77937 39745
L77909 39717
L77881 39661
" />
<path d="M78080 38958
L78474 38960
" />
<path d="M77855 39098
L78276 39240
L78278 38875
" />
<path d="M78477 38201
L78083 38199
" />
<path d="M78140 38199
L78112 38171
L78084 38115
L78084 38030
L78112 37974
L78169 37946
L78478 37948
" />
<path d="M78169 37946
L78113 37918
L78085 37862
L78085 37777
L78113 37721
L78170 37693
L78479 37694
" />
<path d="M78480 37413
L78087 37412
" />
<path d="M78143 37412
L78115 37384
L78087 37327
L78087 37243
L78116 37187
L78172 37159
L78481 37160
" />
<path d="M78172 37159
L78116 37131
L78088 37074
L78088 36990
L78117 36934
L78173 36906
L78482 36907
" />
<path d="M77699 33022
L77649 45622
" />
<path d="M71950 33000
L78762 33027
" />
<path d="M71900 45600
L78712 45627
" />
<path d="M77649 45622
L77420 45178
" />
<path d="M77649 45622
L77882 45180
" />
<path d="M77699 33022
L77466 33465
" />
<path d="M77699 33022
L77928 33467
" />
<path d="M56334 29695
L56222 29695
L56165 29723
L56137 29751
L56081 29835
L56053 29948
L56053 30173
L56081 30229
L56109 30257
L56165 30285
L56278 30285
L56334 30257
L56362 30229
L56390 30173
L56390 30032
L56362 29976
L56334 29948
L56278 29920
L56165 29920
L56109 29948
L56081 29976
L56053 30032
" />
<path d="M56728 29948
L56672 29920
L56643 29891
L56615 29835
L56615 29807
L56643 29751
L56672 29723
L56728 29695
L56840 29695
L56897 29723
L56925 29751
L56953 29807
L56953 29835
L56925 29891
L56897 29920
L56840 29948
L56728 29948
L56672 29976
L56643 30004
L56615 30060
L56615 30173
L56643 30229
L56672 30257
L56728 30285
L56840 30285
L56897 30257
L56925 30229
L56953 30173
L56953 30060
L56925 30004
L56897 29976
L56840 29948
" />
<path d="M57234 30257
L57234 30285
L57206 30341
L57178 30370
" />
<path d="M57600 29695
L57656 29695
L57712 29723
L57740 29751
L57768 29807
L57796 29920
L57796 30060
L57768 30173
L57740 30229
L57712 30257
L57656 30285
L57600 30285
L57543 30257
L57515 30229
L57487 30173
L57459 30060
L57459 29920
L57487 29807
L57515 29751
L57543 29723
L57600 29695
" />
<path d="M57993 29695
L58387 29695
L58134 30285
" />
<path d="M58584 29751
L58612 29723
L58668 29695
L58809 29695
L58865 29723
L58893 29751
L58921 29807
L58921 29863
L58893 29948
L58556 30285
L58921 30285
" />
<path d="M59624 30285
L59624 29891
" />
<path d="M59624 29948
L59652 29920
L59709 29891
L59793 29891
L59849 29920
L59877 29976
L59877 30285
" />
<path d="M59877 29976
L59906 29920
L59962 29891
L60046 29891
L60102 29920
L60131 29976
L60131 30285
" />
<path d="M60412 30285
L60412 29891
" />
<path d="M60412 29948
L60440 29920
L60496 29891
L60580 29891
L60637 29920
L60665 29976
L60665 30285
" />
<path d="M60665 29976
L60693 29920
L60749 29891
L60834 29891
L60890 29920
L60918 29976
L60918 30285
" />
<path d="M45100 30550
L71900 30550
" />
<path d="M45100 32950
L45100 29487
" />
<path d="M71900 32950
L71900 29487
" />
<path d="M71900 30550
L71456 30780
" />
<path d="M71900 30550
L71456 30319
" />
<path d="M45100 30550
L45543 30780
" />
<path d="M45100 30550
L45543 30319
" />
</g> 
</svg>
