<?xml version="1.0" standalone="no"?>
 <!DOCTYPE svg PUBLIC "-//W3C//DTD SVG 1.1//EN" 
 "http://www.w3.org/Graphics/SVG/1.1/DTD/svg11.dtd"> 
<svg xmlns="http://www.w3.org/2000/svg" version="1.1" 
    width="29.7002cm" height="21.0007cm" viewBox="0 0 116930 82680 ">
<title>SVG Picture created as strip-board-size-F.SilkS.svg date 2017/02/14 11:34:38 </title>
  <desc>Picture generated by PCBNEW </desc>
<g style="fill:#000000; fill-opacity:1;stroke:#000000; stroke-opacity:1;
stroke-linecap:round; stroke-linejoin:round; "
 transform="translate(0 0) scale(1 1)">
</g>
<g style="fill:#000000; fill-opacity:0.0; 
stroke:#000000; stroke-width:-0.000393701; stroke-opacity:1; 
stroke-linecap:round; stroke-linejoin:round;">
</g>
<g style="fill:#000000; fill-opacity:0.0; 
stroke:#000000; stroke-width:47.2441; stroke-opacity:1; 
stroke-linecap:round; stroke-linejoin:round;">
<path d="M55500 42047
L58547 42047
" />
<path d="M58547 42047
L58547 39952
" />
<path d="M58547 39952
L54452 39952
" />
<path d="M54452 39952
L54452 41000
" />
<path d="M54452 41000
L55500 41000
" />
<path d="M55500 41000
L55500 42047
" />
<path d="M55000 42047
L54452 42047
" />
<path d="M54452 42047
L54452 41500
" />
<path d="M47448 42100
L46531 42100
" />
<path d="M47448 36198
L46614 36198
" />
<path d="M47448 42100
L47448 36198
" />
<path d="M41901 42100
L41901 36198
" />
<path d="M45366 42100
L41901 42100
" />
<path d="M45287 36198
L41901 36198
" />
</g>
<g style="fill:#000000; fill-opacity:0.0; 
stroke:#000000; stroke-width:59.0551; stroke-opacity:1; 
stroke-linecap:round; stroke-linejoin:round;">
<circle cx="64500" cy="35500" r="1802.78" /> 
<path d="M62000 33000
L67000 33000
" />
<path d="M67000 33000
L67000 38000
" />
<path d="M67000 38000
L62000 38000
" />
<path d="M62000 38000
L62000 33000
" />
<circle cx="64500" cy="40500" r="1802.78" /> 
<path d="M62000 38000
L67000 38000
" />
<path d="M67000 38000
L67000 43000
" />
<path d="M67000 43000
L62000 43000
" />
<path d="M62000 43000
L62000 38000
" />
<path d="M58000 39200
L58000 36800
" />
<path d="M53500 39200
L53500 36800
" />
<path d="M58000 39200
L53500 39200
" />
<path d="M53500 36800
L58000 36800
" />
<path d="M53000 38500
L53500 38500
" />
<path d="M53000 37500
L53500 37500
" />
</g>
<g style="fill:#000000; fill-opacity:0.0; 
stroke:#000000; stroke-width:47.2441; stroke-opacity:1; 
stroke-linecap:round; stroke-linejoin:round;">
<path d="M69452 35000
L69452 38047
" />
<path d="M69452 38047
L70547 38047
" />
<path d="M70547 38047
L70547 35000
" />
<path d="M70547 35000
L69452 35000
" />
<path d="M69452 34500
L69452 33952
" />
<path d="M69452 33952
L70000 33952
" />
<path d="M47484 41015
L47484 37031
" />
<path d="M48515 41015
L48515 37031
" />
<path d="M47484 41015
L48515 41015
" />
<path d="M47484 37031
L48515 37031
" />
</g>
<g style="fill:#000000; fill-opacity:0.0; 
stroke:#000000; stroke-width:59.0551; stroke-opacity:1; 
stroke-linecap:round; stroke-linejoin:round;">
<path d="M48800 40100
L49250 40100
" />
<path d="M48800 38900
L49250 38900
" />
<path d="M49250 37400
L50700 37400
" />
<path d="M50700 37400
L50700 41600
" />
<path d="M50700 41600
L49250 41600
" />
<path d="M48800 37400
L49250 37400
" />
<path d="M49250 37400
L49250 41600
" />
<path d="M49250 41600
L48800 41600
" />
<path d="M48800 39500
L48800 41600
" />
<path d="M48800 39500
L48800 37400
" />
<path d="M46428 38040
L46034 38040
L46034 37890
L46053 37853
L46071 37834
L46109 37815
L46165 37815
L46203 37834
L46221 37853
L46240 37890
L46240 38040
" />
<path d="M46428 37440
L46428 37665
" />
<path d="M46428 37553
L46034 37553
L46090 37590
L46128 37628
L46146 37665
" />
<path d="M63975 34659
L64031 34678
L64125 34678
L64162 34659
L64181 34640
L64200 34603
L64200 34565
L64181 34528
L64162 34509
L64125 34490
L64050 34471
L64012 34453
L63993 34434
L63975 34396
L63975 34359
L63993 34321
L64012 34303
L64050 34284
L64143 34284
L64200 34303
" />
<path d="M64331 34284
L64425 34678
L64500 34396
L64574 34678
L64668 34284
" />
<path d="M65024 34678
L64799 34678
" />
<path d="M64912 34678
L64912 34284
L64874 34340
L64837 34378
L64799 34396
" />
<path d="M63975 39659
L64031 39678
L64125 39678
L64162 39659
L64181 39640
L64200 39603
L64200 39565
L64181 39528
L64162 39509
L64125 39490
L64050 39471
L64012 39453
L63993 39434
L63975 39396
L63975 39359
L63993 39321
L64012 39303
L64050 39284
L64143 39284
L64200 39303
" />
<path d="M64331 39284
L64425 39678
L64500 39396
L64574 39678
L64668 39284
" />
<path d="M64799 39321
L64818 39303
L64856 39284
L64949 39284
L64987 39303
L65006 39321
L65024 39359
L65024 39396
L65006 39453
L64781 39678
L65024 39678
" />
<path d="M55934 38640
L55915 38659
L55859 38678
L55821 38678
L55765 38659
L55728 38621
L55709 38584
L55690 38509
L55690 38453
L55709 38378
L55728 38340
L55765 38303
L55821 38284
L55859 38284
L55915 38303
L55934 38321
" />
<path d="M56084 38321
L56103 38303
L56140 38284
L56234 38284
L56271 38303
L56290 38321
L56309 38359
L56309 38396
L56290 38453
L56065 38678
L56309 38678
" />
<path d="M54028 38649
L54028 38350
" />
<path d="M54178 38499
L53878 38499
" />
<path d="M48140 39065
L48159 39084
L48178 39140
L48178 39178
L48159 39234
L48121 39271
L48084 39290
L48009 39309
L47953 39309
L47878 39290
L47840 39271
L47803 39234
L47784 39178
L47784 39140
L47803 39084
L47821 39065
" />
<path d="M48178 38690
L48178 38915
" />
<path d="M48178 38803
L47784 38803
L47840 38840
L47878 38878
L47896 38915
" />
<path d="M50215 37537
L50196 37574
L50159 37612
L50103 37668
L50084 37706
L50084 37743
" />
<path d="M50178 37724
L50159 37762
L50121 37799
L50046 37818
L49915 37818
L49840 37799
L49803 37762
L49784 37724
L49784 37649
L49803 37612
L49840 37574
L49915 37556
L50046 37556
L50121 37574
L50159 37612
L50178 37649
L50178 37724
" />
<path d="M50178 37181
L50178 37406
" />
<path d="M50178 37293
L49784 37293
L49840 37331
L49878 37368
L49896 37406
" />
</g> 
</svg>
